# xmcd
#
# Track frame offsets:
#	150
#	19124
#	32393
#	46046
#	63177
#	80140
#	96758
#	110763
#	124569
#	140670
#	144480
#
# Disc length: 2161 seconds
#
# Revision: 4
# Processed by: cddbd v1.5.2PL0 Copyright (c) Steve Scherf et al.
# Submitted via: EasyCDDAExtractor 16.0.1.1
#
DISCID=8e086f0b
DTITLE=Fred Eaglesmith - Drive-In Movie
DYEAR=1996
DGENRE=Country
TTITLE0=I Like Trains
TTITLE1=49 Tons
TTITLE2=Here's The Keys
TTITLE3=Crashin' and Burnin'
TTITLE4=Wilder Than Her
TTITLE5=White Rose
TTITLE6=Good Enough
TTITLE7=Soda Machine
TTITLE8=Freight Train
TTITLE9=49 Tons (Reprise)
TTITLE10=Drive-In Movie
EXTD=
EXTT0=
EXTT1=
EXTT2=
EXTT3=
EXTT4=
EXTT5=
EXTT6=
EXTT7=
EXTT8=
EXTT9=
EXTT10=
PLAYORDER=
